<svg t="1641832981768" class="icon" viewBox="0 0 1024 1024" version="1.1" xmlns="http://www.w3.org/2000/svg" p-id="1953" width="32" height="32"><path d="M206.980129 932.060215H812.043011c2.521462 0 4.569462 2.048 4.569462 4.569462v73.628904a4.580473 4.580473 0 0 1-4.569462 4.580473l-605.062882-0.011011a4.580473 4.580473 0 0 1-4.569462-4.569462v-73.628904c0-2.521462 2.048-4.569462 4.569462-4.569462zM507.364473 0c193.414882 0 335.519656 164.192344 332.35957 341.300301-3.402323 190.32086-144.692301 376.204387-271.139785 504.53471-62.089634 63.003527-55.196903 68.563957-117.826064 5.582451-129.266237-130.003957-271.547183-315.259871-275.632172-508.663742C171.415398 166.878968 310.580301 0 507.364473 0z m0 177.129978c-85.927914 0-155.614968 69.709075-155.625978 155.625979 0 85.938925 69.698065 155.625978 155.625978 155.625978 85.938925 0 155.625978-69.687054 155.625979-155.625978 0-85.927914-69.698065-155.625978-155.625979-155.625979z" fill="#1296db" p-id="1954"></path></svg>