<?xml version="1.0" standalone="no"?><!DOCTYPE svg PUBLIC "-//W3C//DTD SVG 1.1//EN" "http://www.w3.org/Graphics/SVG/1.1/DTD/svg11.dtd"><svg t="1631019865500" class="icon" viewBox="0 0 1419 1024" version="1.1" xmlns="http://www.w3.org/2000/svg" p-id="2078" width="66.515625" height="48" xmlns:xlink="http://www.w3.org/1999/xlink"><defs><style type="text/css">@font-face { font-family: "Leelawadee UI Web"; src: url("https://static2.sharepointonline.com/files/fabric/assets/fonts/leelawadeeui-thai/leelawadeeui-light.woff2") format("woff2"), url("https://static2.sharepointonline.com/files/fabric/assets/fonts/leelawadeeui-thai/leelawadeeui-light.woff") format("woff"); font-weight: 100; font-style: normal; font-display: swap; }
@font-face { font-family: "Leelawadee UI Web"; src: url("https://static2.sharepointonline.com/files/fabric/assets/fonts/leelawadeeui-thai/leelawadeeui-semilight.woff2") format("woff2"), url("https://static2.sharepointonline.com/files/fabric/assets/fonts/leelawadeeui-thai/leelawadeeui-semilight.woff") format("woff"); font-weight: 300; font-style: normal; font-display: swap; }
@font-face { font-family: "Leelawadee UI Web"; src: url("https://static2.sharepointonline.com/files/fabric/assets/fonts/leelawadeeui-thai/leelawadeeui-regular.woff2") format("woff2"), url("https://static2.sharepointonline.com/files/fabric/assets/fonts/leelawadeeui-thai/leelawadeeui-regular.woff") format("woff"); font-weight: 400; font-style: normal; font-display: swap; }
@font-face { font-family: "Leelawadee UI Web"; src: url("https://static2.sharepointonline.com/files/fabric/assets/fonts/leelawadeeui-thai/leelawadeeui-semibold.woff2") format("woff2"), url("https://static2.sharepointonline.com/files/fabric/assets/fonts/leelawadeeui-thai/leelawadeeui-semibold.woff") format("woff"); font-weight: 600; font-style: normal; font-display: swap; }
@font-face { font-family: "Leelawadee UI Web"; src: url("https://static2.sharepointonline.com/files/fabric/assets/fonts/leelawadeeui-thai/leelawadeeui-bold.woff2") format("woff2"), url("https://static2.sharepointonline.com/files/fabric/assets/fonts/leelawadeeui-thai/leelawadeeui-bold.woff") format("woff"); font-weight: 700; font-style: normal; font-display: swap; }
@font-face { font-family: "Segoe UI Web (Arabic)"; src: url("https://static2.sharepointonline.com/files/fabric/assets/fonts/segoeui-arabic/segoeui-light.woff2") format("woff2"), url("https://static2.sharepointonline.com/files/fabric/assets/fonts/segoeui-arabic/segoeui-light.woff") format("woff"); font-weight: 100; font-style: normal; font-display: swap; }
@font-face { font-family: "Segoe UI Web (Arabic)"; src: url("https://static2.sharepointonline.com/files/fabric/assets/fonts/segoeui-arabic/segoeui-semilight.woff2") format("woff2"), url("https://static2.sharepointonline.com/files/fabric/assets/fonts/segoeui-arabic/segoeui-semilight.woff") format("woff"); font-weight: 300; font-style: normal; font-display: swap; }
@font-face { font-family: "Segoe UI Web (Arabic)"; src: url("https://static2.sharepointonline.com/files/fabric/assets/fonts/segoeui-arabic/segoeui-regular.woff2") format("woff2"), url("https://static2.sharepointonline.com/files/fabric/assets/fonts/segoeui-arabic/segoeui-regular.woff") format("woff"); font-weight: 400; font-style: normal; font-display: swap; }
@font-face { font-family: "Segoe UI Web (Arabic)"; src: url("https://static2.sharepointonline.com/files/fabric/assets/fonts/segoeui-arabic/segoeui-semibold.woff2") format("woff2"), url("https://static2.sharepointonline.com/files/fabric/assets/fonts/segoeui-arabic/segoeui-semibold.woff") format("woff"); font-weight: 600; font-style: normal; font-display: swap; }
@font-face { font-family: "Segoe UI Web (Arabic)"; src: url("https://static2.sharepointonline.com/files/fabric/assets/fonts/segoeui-arabic/segoeui-bold.woff2") format("woff2"), url("https://static2.sharepointonline.com/files/fabric/assets/fonts/segoeui-arabic/segoeui-bold.woff") format("woff"); font-weight: 700; font-style: normal; font-display: swap; }
@font-face { font-family: "Segoe UI Web (Cyrillic)"; src: url("https://static2.sharepointonline.com/files/fabric/assets/fonts/segoeui-cyrillic/segoeui-light.woff2") format("woff2"), url("https://static2.sharepointonline.com/files/fabric/assets/fonts/segoeui-cyrillic/segoeui-light.woff") format("woff"); font-weight: 100; font-style: normal; font-display: swap; }
@font-face { font-family: "Segoe UI Web (Cyrillic)"; src: url("https://static2.sharepointonline.com/files/fabric/assets/fonts/segoeui-cyrillic/segoeui-semilight.woff2") format("woff2"), url("https://static2.sharepointonline.com/files/fabric/assets/fonts/segoeui-cyrillic/segoeui-semilight.woff") format("woff"); font-weight: 300; font-style: normal; font-display: swap; }
@font-face { font-family: "Segoe UI Web (Cyrillic)"; src: url("https://static2.sharepointonline.com/files/fabric/assets/fonts/segoeui-cyrillic/segoeui-regular.woff2") format("woff2"), url("https://static2.sharepointonline.com/files/fabric/assets/fonts/segoeui-cyrillic/segoeui-regular.woff") format("woff"); font-weight: 400; font-style: normal; font-display: swap; }
@font-face { font-family: "Segoe UI Web (Cyrillic)"; src: url("https://static2.sharepointonline.com/files/fabric/assets/fonts/segoeui-cyrillic/segoeui-semibold.woff2") format("woff2"), url("https://static2.sharepointonline.com/files/fabric/assets/fonts/segoeui-cyrillic/segoeui-semibold.woff") format("woff"); font-weight: 600; font-style: normal; font-display: swap; }
@font-face { font-family: "Segoe UI Web (Cyrillic)"; src: url("https://static2.sharepointonline.com/files/fabric/assets/fonts/segoeui-cyrillic/segoeui-bold.woff2") format("woff2"), url("https://static2.sharepointonline.com/files/fabric/assets/fonts/segoeui-cyrillic/segoeui-bold.woff") format("woff"); font-weight: 700; font-style: normal; font-display: swap; }
@font-face { font-family: "Segoe UI Web (East European)"; src: url("https://static2.sharepointonline.com/files/fabric/assets/fonts/segoeui-easteuropean/segoeui-light.woff2") format("woff2"), url("https://static2.sharepointonline.com/files/fabric/assets/fonts/segoeui-easteuropean/segoeui-light.woff") format("woff"); font-weight: 100; font-style: normal; font-display: swap; }
@font-face { font-family: "Segoe UI Web (East European)"; src: url("https://static2.sharepointonline.com/files/fabric/assets/fonts/segoeui-easteuropean/segoeui-semilight.woff2") format("woff2"), url("https://static2.sharepointonline.com/files/fabric/assets/fonts/segoeui-easteuropean/segoeui-semilight.woff") format("woff"); font-weight: 300; font-style: normal; font-display: swap; }
@font-face { font-family: "Segoe UI Web (East European)"; src: url("https://static2.sharepointonline.com/files/fabric/assets/fonts/segoeui-easteuropean/segoeui-regular.woff2") format("woff2"), url("https://static2.sharepointonline.com/files/fabric/assets/fonts/segoeui-easteuropean/segoeui-regular.woff") format("woff"); font-weight: 400; font-style: normal; font-display: swap; }
@font-face { font-family: "Segoe UI Web (East European)"; src: url("https://static2.sharepointonline.com/files/fabric/assets/fonts/segoeui-easteuropean/segoeui-semibold.woff2") format("woff2"), url("https://static2.sharepointonline.com/files/fabric/assets/fonts/segoeui-easteuropean/segoeui-semibold.woff") format("woff"); font-weight: 600; font-style: normal; font-display: swap; }
@font-face { font-family: "Segoe UI Web (East European)"; src: url("https://static2.sharepointonline.com/files/fabric/assets/fonts/segoeui-easteuropean/segoeui-bold.woff2") format("woff2"), url("https://static2.sharepointonline.com/files/fabric/assets/fonts/segoeui-easteuropean/segoeui-bold.woff") format("woff"); font-weight: 700; font-style: normal; font-display: swap; }
@font-face { font-family: "Segoe UI Web (Greek)"; src: url("https://static2.sharepointonline.com/files/fabric/assets/fonts/segoeui-greek/segoeui-light.woff2") format("woff2"), url("https://static2.sharepointonline.com/files/fabric/assets/fonts/segoeui-greek/segoeui-light.woff") format("woff"); font-weight: 100; font-style: normal; font-display: swap; }
@font-face { font-family: "Segoe UI Web (Greek)"; src: url("https://static2.sharepointonline.com/files/fabric/assets/fonts/segoeui-greek/segoeui-semilight.woff2") format("woff2"), url("https://static2.sharepointonline.com/files/fabric/assets/fonts/segoeui-greek/segoeui-semilight.woff") format("woff"); font-weight: 300; font-style: normal; font-display: swap; }
@font-face { font-family: "Segoe UI Web (Greek)"; src: url("https://static2.sharepointonline.com/files/fabric/assets/fonts/segoeui-greek/segoeui-regular.woff2") format("woff2"), url("https://static2.sharepointonline.com/files/fabric/assets/fonts/segoeui-greek/segoeui-regular.woff") format("woff"); font-weight: 400; font-style: normal; font-display: swap; }
@font-face { font-family: "Segoe UI Web (Greek)"; src: url("https://static2.sharepointonline.com/files/fabric/assets/fonts/segoeui-greek/segoeui-semibold.woff2") format("woff2"), url("https://static2.sharepointonline.com/files/fabric/assets/fonts/segoeui-greek/segoeui-semibold.woff") format("woff"); font-weight: 600; font-style: normal; font-display: swap; }
@font-face { font-family: "Segoe UI Web (Greek)"; src: url("https://static2.sharepointonline.com/files/fabric/assets/fonts/segoeui-greek/segoeui-bold.woff2") format("woff2"), url("https://static2.sharepointonline.com/files/fabric/assets/fonts/segoeui-greek/segoeui-bold.woff") format("woff"); font-weight: 700; font-style: normal; font-display: swap; }
@font-face { font-family: "Segoe UI Web (Hebrew)"; src: url("https://static2.sharepointonline.com/files/fabric/assets/fonts/segoeui-hebrew/segoeui-light.woff2") format("woff2"), url("https://static2.sharepointonline.com/files/fabric/assets/fonts/segoeui-hebrew/segoeui-light.woff") format("woff"); font-weight: 100; font-style: normal; font-display: swap; }
@font-face { font-family: "Segoe UI Web (Hebrew)"; src: url("https://static2.sharepointonline.com/files/fabric/assets/fonts/segoeui-hebrew/segoeui-semilight.woff2") format("woff2"), url("https://static2.sharepointonline.com/files/fabric/assets/fonts/segoeui-hebrew/segoeui-semilight.woff") format("woff"); font-weight: 300; font-style: normal; font-display: swap; }
@font-face { font-family: "Segoe UI Web (Hebrew)"; src: url("https://static2.sharepointonline.com/files/fabric/assets/fonts/segoeui-hebrew/segoeui-regular.woff2") format("woff2"), url("https://static2.sharepointonline.com/files/fabric/assets/fonts/segoeui-hebrew/segoeui-regular.woff") format("woff"); font-weight: 400; font-style: normal; font-display: swap; }
@font-face { font-family: "Segoe UI Web (Hebrew)"; src: url("https://static2.sharepointonline.com/files/fabric/assets/fonts/segoeui-hebrew/segoeui-semibold.woff2") format("woff2"), url("https://static2.sharepointonline.com/files/fabric/assets/fonts/segoeui-hebrew/segoeui-semibold.woff") format("woff"); font-weight: 600; font-style: normal; font-display: swap; }
@font-face { font-family: "Segoe UI Web (Hebrew)"; src: url("https://static2.sharepointonline.com/files/fabric/assets/fonts/segoeui-hebrew/segoeui-bold.woff2") format("woff2"), url("https://static2.sharepointonline.com/files/fabric/assets/fonts/segoeui-hebrew/segoeui-bold.woff") format("woff"); font-weight: 700; font-style: normal; font-display: swap; }
@font-face { font-family: "Segoe UI Web (Vietnamese)"; src: url("https://static2.sharepointonline.com/files/fabric/assets/fonts/segoeui-vietnamese/segoeui-light.woff2") format("woff2"), url("https://static2.sharepointonline.com/files/fabric/assets/fonts/segoeui-vietnamese/segoeui-light.woff") format("woff"); font-weight: 100; font-style: normal; font-display: swap; }
@font-face { font-family: "Segoe UI Web (Vietnamese)"; src: url("https://static2.sharepointonline.com/files/fabric/assets/fonts/segoeui-vietnamese/segoeui-semilight.woff2") format("woff2"), url("https://static2.sharepointonline.com/files/fabric/assets/fonts/segoeui-vietnamese/segoeui-semilight.woff") format("woff"); font-weight: 300; font-style: normal; font-display: swap; }
@font-face { font-family: "Segoe UI Web (Vietnamese)"; src: url("https://static2.sharepointonline.com/files/fabric/assets/fonts/segoeui-vietnamese/segoeui-regular.woff2") format("woff2"), url("https://static2.sharepointonline.com/files/fabric/assets/fonts/segoeui-vietnamese/segoeui-regular.woff") format("woff"); font-weight: 400; font-style: normal; font-display: swap; }
@font-face { font-family: "Segoe UI Web (Vietnamese)"; src: url("https://static2.sharepointonline.com/files/fabric/assets/fonts/segoeui-vietnamese/segoeui-semibold.woff2") format("woff2"), url("https://static2.sharepointonline.com/files/fabric/assets/fonts/segoeui-vietnamese/segoeui-semibold.woff") format("woff"); font-weight: 600; font-style: normal; font-display: swap; }
@font-face { font-family: "Segoe UI Web (Vietnamese)"; src: url("https://static2.sharepointonline.com/files/fabric/assets/fonts/segoeui-vietnamese/segoeui-bold.woff2") format("woff2"), url("https://static2.sharepointonline.com/files/fabric/assets/fonts/segoeui-vietnamese/segoeui-bold.woff") format("woff"); font-weight: 700; font-style: normal; font-display: swap; }
@font-face { font-family: "Segoe UI Web (West European)"; src: local("Segoe UI Light"), url("https://static2.sharepointonline.com/files/fabric/assets/fonts/segoeui-westeuropean/segoeui-light.woff2") format("woff2"), url("https://static2.sharepointonline.com/files/fabric/assets/fonts/segoeui-westeuropean/segoeui-light.woff") format("woff"); font-weight: 100; font-style: normal; font-display: swap; }
@font-face { font-family: "Segoe UI Web (West European)"; src: local("Segoe UI SemiLight"), url("https://static2.sharepointonline.com/files/fabric/assets/fonts/segoeui-westeuropean/segoeui-semilight.woff2") format("woff2"), url("https://static2.sharepointonline.com/files/fabric/assets/fonts/segoeui-westeuropean/segoeui-semilight.woff") format("woff"); font-weight: 300; font-style: normal; font-display: swap; }
@font-face { font-family: "Segoe UI Web (West European)"; src: local("Segoe UI"), url("https://static2.sharepointonline.com/files/fabric/assets/fonts/segoeui-westeuropean/segoeui-regular.woff2") format("woff2"), url("https://static2.sharepointonline.com/files/fabric/assets/fonts/segoeui-westeuropean/segoeui-regular.woff") format("woff"); font-weight: 400; font-style: normal; font-display: swap; }
@font-face { font-family: "Segoe UI Web (West European)"; src: local("Segoe UI SemiBold"), url("https://static2.sharepointonline.com/files/fabric/assets/fonts/segoeui-westeuropean/segoeui-semibold.woff2") format("woff2"), url("https://static2.sharepointonline.com/files/fabric/assets/fonts/segoeui-westeuropean/segoeui-semibold.woff") format("woff"); font-weight: 600; font-style: normal; font-display: swap; }
@font-face { font-family: "Segoe UI Web (West European)"; src: local("Segoe UI Bold"), url("https://static2.sharepointonline.com/files/fabric/assets/fonts/segoeui-westeuropean/segoeui-bold.woff2") format("woff2"), url("https://static2.sharepointonline.com/files/fabric/assets/fonts/segoeui-westeuropean/segoeui-bold.woff") format("woff"); font-weight: 700; font-style: normal; font-display: swap; }
@font-face { src: url("https://static2.sharepointonline.com/files/fabric/assets/fonts/selawik/selawik-light.woff2") format("woff2"), url("https://static2.sharepointonline.com/files/fabric/assets/fonts/selawik/selawik-light.woff") format("woff"); font-weight: 100; font-style: normal; font-display: swap; }
@font-face { src: url("https://static2.sharepointonline.com/files/fabric/assets/fonts/selawik/selawik-semilight.woff2") format("woff2"), url("https://static2.sharepointonline.com/files/fabric/assets/fonts/selawik/selawik-semilight.woff") format("woff"); font-weight: 300; font-style: normal; font-display: swap; }
@font-face { src: url("https://static2.sharepointonline.com/files/fabric/assets/fonts/selawik/selawik-regular.woff2") format("woff2"), url("https://static2.sharepointonline.com/files/fabric/assets/fonts/selawik/selawik-regular.woff") format("woff"); font-weight: 400; font-style: normal; font-display: swap; }
@font-face { src: url("https://static2.sharepointonline.com/files/fabric/assets/fonts/selawik/selawik-semibold.woff2") format("woff2"), url("https://static2.sharepointonline.com/files/fabric/assets/fonts/selawik/selawik-semibold.woff") format("woff"); font-weight: 600; font-style: normal; font-display: swap; }
@font-face { src: url("https://static2.sharepointonline.com/files/fabric/assets/fonts/selawik/selawik-bold.woff2") format("woff2"), url("https://static2.sharepointonline.com/files/fabric/assets/fonts/selawik/selawik-bold.woff") format("woff"); font-weight: 700; font-style: normal; font-display: swap; }
@font-face { font-family: "Segoe UI Web (Armenian)"; src: url("https://static2.sharepointonline.com/files/fabric/assets/fonts/segoeui-armenian/segoeui-light.woff2") format("woff2"), url("https://static2.sharepointonline.com/files/fabric/assets/fonts/segoeui-armenian/segoeui-light.woff") format("woff"); font-weight: 100; font-style: normal; font-display: swap; }
@font-face { font-family: "Segoe UI Web (Armenian)"; src: url("https://static2.sharepointonline.com/files/fabric/assets/fonts/segoeui-armenian/segoeui-semilight.woff2") format("woff2"), url("https://static2.sharepointonline.com/files/fabric/assets/fonts/segoeui-armenian/segoeui-semilight.woff") format("woff"); font-weight: 300; font-style: normal; font-display: swap; }
@font-face { font-family: "Segoe UI Web (Armenian)"; src: url("https://static2.sharepointonline.com/files/fabric/assets/fonts/segoeui-armenian/segoeui-regular.woff2") format("woff2"), url("https://static2.sharepointonline.com/files/fabric/assets/fonts/segoeui-armenian/segoeui-regular.woff") format("woff"); font-weight: 400; font-style: normal; font-display: swap; }
@font-face { font-family: "Segoe UI Web (Armenian)"; src: url("https://static2.sharepointonline.com/files/fabric/assets/fonts/segoeui-armenian/segoeui-semibold.woff2") format("woff2"), url("https://static2.sharepointonline.com/files/fabric/assets/fonts/segoeui-armenian/segoeui-semibold.woff") format("woff"); font-weight: 600; font-style: normal; font-display: swap; }
@font-face { font-family: "Segoe UI Web (Armenian)"; src: url("https://static2.sharepointonline.com/files/fabric/assets/fonts/segoeui-armenian/segoeui-bold.woff2") format("woff2"), url("https://static2.sharepointonline.com/files/fabric/assets/fonts/segoeui-armenian/segoeui-bold.woff") format("woff"); font-weight: 700; font-style: normal; font-display: swap; }
@font-face { font-family: "Segoe UI Web (Georgian)"; src: url("https://static2.sharepointonline.com/files/fabric/assets/fonts/segoeui-georgian/segoeui-light.woff2") format("woff2"), url("https://static2.sharepointonline.com/files/fabric/assets/fonts/segoeui-georgian/segoeui-light.woff") format("woff"); font-weight: 100; font-style: normal; font-display: swap; }
@font-face { font-family: "Segoe UI Web (Georgian)"; src: url("https://static2.sharepointonline.com/files/fabric/assets/fonts/segoeui-georgian/segoeui-semilight.woff2") format("woff2"), url("https://static2.sharepointonline.com/files/fabric/assets/fonts/segoeui-georgian/segoeui-semilight.woff") format("woff"); font-weight: 300; font-style: normal; font-display: swap; }
@font-face { font-family: "Segoe UI Web (Georgian)"; src: url("https://static2.sharepointonline.com/files/fabric/assets/fonts/segoeui-georgian/segoeui-regular.woff2") format("woff2"), url("https://static2.sharepointonline.com/files/fabric/assets/fonts/segoeui-georgian/segoeui-regular.woff") format("woff"); font-weight: 400; font-style: normal; font-display: swap; }
@font-face { font-family: "Segoe UI Web (Georgian)"; src: url("https://static2.sharepointonline.com/files/fabric/assets/fonts/segoeui-georgian/segoeui-semibold.woff2") format("woff2"), url("https://static2.sharepointonline.com/files/fabric/assets/fonts/segoeui-georgian/segoeui-semibold.woff") format("woff"); font-weight: 600; font-style: normal; font-display: swap; }
@font-face { font-family: "Segoe UI Web (Georgian)"; src: url("https://static2.sharepointonline.com/files/fabric/assets/fonts/segoeui-georgian/segoeui-bold.woff2") format("woff2"), url("https://static2.sharepointonline.com/files/fabric/assets/fonts/segoeui-georgian/segoeui-bold.woff") format("woff"); font-weight: 700; font-style: normal; font-display: swap; }
@font-face { font-family: "Leelawadee UI Web"; src: url("https://static2.sharepointonline.com/files/fabric/assets/fonts/leelawadeeui-thai/leelawadeeui-semilight.woff2") format("woff2"), url("https://static2.sharepointonline.com/files/fabric/assets/fonts/leelawadeeui-thai/leelawadeeui-semilight.woff") format("woff"); font-weight: 100; font-style: normal; font-display: swap; }
@font-face { font-family: "Leelawadee UI Web"; src: url("https://static2.sharepointonline.com/files/fabric/assets/fonts/leelawadeeui-thai/leelawadeeui-bold.woff2") format("woff2"), url("https://static2.sharepointonline.com/files/fabric/assets/fonts/leelawadeeui-thai/leelawadeeui-bold.woff") format("woff"); font-weight: 600; font-style: normal; font-display: swap; }
@font-face { font-family: FabricMDL2Icons; src: url("fabric-icons.woff") format("woff"); }
@font-face { font-family: FabricMDL2Icons; src: url("fabric-icons.woff") format("woff"); }
@font-face { font-family: FabricMDL2Icons; src: url("fabric-icons.woff") format("woff"); }
</style></defs><path d="M68.487952 973.420391h44.257159a25.289805 25.289805 0 1 1 0 50.579609h-44.257159a25.289805 25.289805 0 0 1 0-50.579609z m1166.492244 0h104.320445a25.289805 25.289805 0 0 1 0 50.579609h-104.320445a25.289805 25.289805 0 0 1 0-50.579609z m-1011.59219 0h913.594197a25.289805 25.289805 0 0 1 0 50.579609h-913.594197a25.289805 25.289805 0 0 1 0-50.579609z" fill="#261D50" p-id="2079"></path><path d="M173.077101 163.5302l131.190862 0 0 298.530339-131.190862 0 0-298.530339Z" fill="#FFFFFF" p-id="2080"></path><path d="M621.022768 39.878861l167.861079 0 0 207.929613-167.861079 0 0-207.929613Z" fill="#FFFFFF" p-id="2081"></path><path d="M1115.912634 160.432199l131.190862 0 0 306.638882-131.190862 0 0-306.638882Z" fill="#FFFFFF" p-id="2082"></path><path d="M991.62905 494.731805H421.422984A66.00639 66.00639 0 0 1 355.637879 428.677996V252.566119A66.00639 66.00639 0 0 1 421.422984 186.51231h570.221872A66.00639 66.00639 0 0 1 1057.429961 252.566119v176.111877A66.00639 66.00639 0 0 1 991.62905 494.731805z" fill="#00B7D6" p-id="2083"></path><path d="M993.209663 508.95732H423.019403A78.651293 78.651293 0 0 1 344.57359 430.258609V254.146731A78.651293 78.651293 0 0 1 423.019403 175.44802a12.644902 12.644902 0 0 1 0 25.289805A53.329876 53.329876 0 0 0 369.863394 254.146731v176.111878A53.329876 53.329876 0 0 0 423.019403 483.667516h570.19026A53.345682 53.345682 0 0 0 1046.365671 430.258609V254.146731A53.329876 53.329876 0 0 0 993.225469 200.737825H524.937316a12.644902 12.644902 0 0 1 0-25.289805h468.288153A78.651293 78.651293 0 0 1 1071.655476 254.146731v176.111878A78.651293 78.651293 0 0 1 993.209663 508.95732zM485.959404 200.737825h-24.973682a12.644902 12.644902 0 0 1 0-25.289805h24.973682a12.644902 12.644902 0 1 1 0 25.289805z" fill="#261D50" p-id="2084"></path><path d="M803.599352 197.5766H606.307262V126.765146c0-55.084356 44.257158-99.894729 98.646045-99.894728s98.646045 44.810373 98.646045 99.894728z m-172.002285-25.289805h146.71248V126.765146c0-41.095933-32.908358-74.604924-73.35624-74.604924s-73.35624 33.461573-73.35624 74.604924zM1181.508065 480.50629a78.556456 78.556456 0 0 1-78.240333-78.698711V225.695701a78.240333 78.240333 0 1 1 156.480667 0v176.111878A78.556456 78.556456 0 0 1 1181.508065 480.50629z m0-308.219495a53.235039 53.235039 0 0 0-52.950529 53.408906v176.111878a52.950529 52.950529 0 1 0 105.901058 0V225.695701A53.235039 53.235039 0 0 0 1181.508065 172.286795z" fill="#261D50" p-id="2085"></path><path d="M1060.591186 428.346068a31.612256 31.612256 0 0 1-31.612256-31.612256v-112.223509a31.612256 31.612256 0 0 1 31.612256-31.612256h67.96635a31.612256 31.612256 0 0 1 31.612256 31.612256v112.223509a31.612256 31.612256 0 0 1-31.612256 31.612256z" fill="#FDD838" p-id="2086"></path><path d="M1128.557536 440.99097h-67.96635a44.257158 44.257158 0 0 1-44.257158-44.257158v-112.223509a44.257158 44.257158 0 0 1 44.257158-44.257158h67.96635a44.257158 44.257158 0 0 1 44.257159 44.257158v112.223509a44.257158 44.257158 0 0 1-44.257159 44.257158z m-67.96635-175.44802a18.967354 18.967354 0 0 0-18.967353 18.967353v112.223509a18.967354 18.967354 0 0 0 18.967353 18.967353h67.96635a18.967354 18.967354 0 0 0 18.967354-18.967353v-112.223509a18.967354 18.967354 0 0 0-18.967354-18.967353z" fill="#261D50" p-id="2087"></path><path d="M1247.103496 143.835764h-131.190862V62.513236A49.931558 49.931558 0 0 1 1165.780968 12.644902h31.438388A49.931558 49.931558 0 0 1 1247.103496 62.513236V143.835764z" fill="#FF6660" p-id="2088"></path><path d="M1259.748399 156.480667h-156.480667V62.513236A62.592267 62.592267 0 0 1 1165.780968 0h31.438388A62.592267 62.592267 0 0 1 1259.748399 62.513236z m-131.190863-25.289805h105.901058V62.513236A37.27085 37.27085 0 0 0 1197.235162 25.289805h-31.454194A37.27085 37.27085 0 0 0 1128.557536 62.513236z" fill="#261D50" p-id="2089"></path><path d="M942.045227 0h477.345064v25.289805H942.045227zM237.882226 480.50629a78.556456 78.556456 0 0 1-78.240334-78.698711V225.695701a78.240333 78.240333 0 1 1 156.480667 0v176.111878A78.556456 78.556456 0 0 1 237.882226 480.50629z m0-308.219495a53.235039 53.235039 0 0 0-52.950529 53.408906v176.111878a52.950529 52.950529 0 1 0 105.901057 0V225.695701A53.235039 53.235039 0 0 0 237.882226 172.286795z" fill="#261D50" p-id="2090"></path><path d="M358.799105 428.346068a31.612256 31.612256 0 0 0 31.612256-31.612256v-112.223509a31.612256 31.612256 0 0 0-31.612256-31.612256h-67.966351a31.612256 31.612256 0 0 0-31.612255 31.612256v112.223509a31.612256 31.612256 0 0 0 31.612255 31.612256z" fill="#FDD838" p-id="2091"></path><path d="M172.286795 143.835764h131.190862V62.513236A49.931558 49.931558 0 0 0 253.609323 12.644902h-31.454194A49.931558 49.931558 0 0 0 172.286795 62.513236V143.835764z" fill="#FF6660" p-id="2092"></path><path d="M316.122559 156.480667h-156.480667V62.513236A62.592267 62.592267 0 0 1 222.155129 0h31.438388A62.592267 62.592267 0 0 1 316.122559 62.513236z m-131.190862-25.289805h105.901057V62.513236A37.27085 37.27085 0 0 0 253.609323 25.289805h-31.454194A37.27085 37.27085 0 0 0 184.931697 62.513236z" fill="#261D50" p-id="2093"></path><path d="M0 0h477.345064v25.289805H0z" fill="#261D50" p-id="2094"></path><path d="M813.335927 317.703172H595.005881a21.844069 21.844069 0 0 1-19.536374-12.091688L531.797175 218.124566a21.859875 21.859875 0 0 1 19.536374-31.612256h305.658903a21.859875 21.859875 0 0 1 19.520568 31.612256l-43.672332 87.455306a21.780844 21.780844 0 0 1-19.504761 12.1233z" fill="#74BA95" p-id="2095"></path><path d="M813.335927 330.348074H595.005881a34.315104 34.315104 0 0 1-30.853562-19.077996l-43.672331-87.471112A34.504777 34.504777 0 0 1 551.333549 173.867408h305.658903a34.504777 34.504777 0 0 1 30.821949 49.931558l-43.672331 87.455306A34.236073 34.236073 0 0 1 813.335927 330.348074z m-262.002378-131.190862a9.262391 9.262391 0 0 0-7.824033 4.362492 9.373034 9.373034 0 0 0-0.395153 9.009493l43.656525 87.423693a9.167554 9.167554 0 0 0 8.219187 5.089574h218.345852a9.10433 9.10433 0 0 0 8.187574-5.073768l43.672331-87.471112a9.214973 9.214973 0 0 0-8.20338-13.340372zM392.984598 591.447922l79.029059-104.380508 20.162297 15.265558-79.027478 104.380508zM919.30337 502.418325l20.163877-15.265558 79.027479 104.378927-20.162297 15.265558z" fill="#261D50" p-id="2096"></path></svg>