<?xml version="1.0" standalone="no"?><!DOCTYPE svg PUBLIC "-//W3C//DTD SVG 1.1//EN" "http://www.w3.org/Graphics/SVG/1.1/DTD/svg11.dtd"><svg t="1627830079859" class="icon" viewBox="0 0 1024 1024" version="1.1" xmlns="http://www.w3.org/2000/svg" p-id="1704" id="mx_n_1627830079863" xmlns:xlink="http://www.w3.org/1999/xlink" width="200" height="200"><defs><style type="text/css"></style></defs><path d="M352.6 359.4h-337c-7.2 0-13-5.8-13-13s5.8-13 13-13h336.9c7.2 0 13 5.8 13 13 0.1 7.2-5.8 13-12.9 13zM1006.2 359.4h-337c-7.2 0-13-5.8-13-13s5.8-13 13-13h336.9c7.2 0 13 5.8 13 13 0.1 7.2-5.8 13-12.9 13z" fill="#1B81FC" p-id="1705"></path><path d="M847.4 468H174c-13.3 0-24.1-10.8-24.1-24.1s10.8-24.1 24.1-24.1h673.5c13.3 0 24.1 10.8 24.1 24.1-0.3 13.3-11.1 24.1-24.2 24.1z" fill="#CBE4FE" p-id="1706"></path><path d="M847.4 481H174c-20.5 0-37.1-16.6-37.1-37.1s16.6-37.1 37.1-37.1h673.5c20.5 0 37.1 16.6 37.1 37.1-0.1 20.4-16.8 37.1-37.2 37.1zM174 433c-6.2 0-11.1 5-11.1 11.1 0 6.2 5 11.1 11.1 11.1h673.5c6.2 0 11.1-5 11.1-11.1 0-6.2-5-11.1-11.1-11.1H174z" fill="#1B81FC" p-id="1707"></path><path d="M184 484.2c-20.9 0-38-17.1-38-38v-73.9c0-10.5 8.5-18.7 18.7-18.7h38.5c10.5 0 18.7 8.5 18.7 18.7v73.8c0.1 21.1-16.8 38.1-37.9 38.1z" fill="#FFFFFF" p-id="1708"></path><path d="M184 497.2c-28.2 0-51.1-22.9-51.1-51.1v-73.8c0-17.6 14.3-31.8 31.8-31.8h38.5c17.6 0 31.8 14.3 31.8 31.8v73.8c0.1 28.2-22.9 51.1-51 51.1z m-19.3-130.6c-3.1 0-5.7 2.6-5.7 5.7v73.8c0 13.8 11.2 25 25 25s25-11.2 25-25v-73.8c0-3.1-2.6-5.7-5.7-5.7h-38.6z" fill="#1B81FC" p-id="1709"></path><path d="M656 790H372.7c-18.6 0-34-15.2-34-34 0-18.6 15.2-34 34-34H656c18.6 0 34 15.2 34 34 0.1 18.8-15.3 34-34 34z" fill="#CBE4FE" p-id="1710"></path><path d="M838 484.2c-20.9 0-38-17.1-38-38v-73.9c0-10.5 8.5-18.7 18.7-18.7h38.5c10.5 0 18.7 8.5 18.7 18.7v73.8c0.1 21.1-16.8 38.1-37.9 38.1z" fill="#FFFFFF" p-id="1711"></path><path d="M838 497.2c-28.2 0-51.1-22.9-51.1-51.1v-73.8c0-17.6 14.3-31.8 31.8-31.8h38.5c17.6 0 31.8 14.3 31.8 31.8v73.8c0 28.2-22.8 51.1-51 51.1z m-19.3-130.6c-3.1 0-5.7 2.6-5.7 5.7v73.8c0 13.8 11.2 25 25 25s25-11.2 25-25v-73.8c0-3.1-2.6-5.7-5.7-5.7h-38.6z" fill="#1B81FC" p-id="1712"></path><path d="M602.4 763.5H426.6c-34.4 0-62.7-28.2-62.7-62.7V587.7c0-34.4 28.2-62.7 62.7-62.7h175.9c34.4 0 62.7 28.2 62.7 62.7v113.2c-0.4 34.4-28.4 62.6-62.8 62.6z" fill="#CBE4FE" p-id="1713"></path><path d="M602.4 776.6H426.6c-41.7 0-75.6-34-75.6-75.6V587.7c0-41.7 34-75.6 75.6-75.6h175.9c41.7 0 75.6 34 75.6 75.6v113.2c-0.2 41.7-34.1 75.7-75.7 75.7zM426.6 538.1c-27.3 0-49.7 22.2-49.7 49.7V701c0 27.3 22.2 49.7 49.7 49.7h175.9c27.3 0 49.7-22.2 49.7-49.7V587.7c0-27.3-22.2-49.7-49.7-49.7H426.6v0.1z" fill="#1B81FC" p-id="1714"></path><path d="M592.2 722.1H436.6c-15.7 0-28.6-12.9-28.6-28.6V582.1c0-15.7 12.9-28.6 28.6-28.6h155.7c15.7 0 28.6 12.9 28.6 28.6v111.3c0 15.8-13 28.7-28.7 28.7z" fill="#FFFFFF" p-id="1715"></path><path d="M592.2 735.1H436.6c-22.9 0-41.7-18.6-41.7-41.7V582.1c0-22.9 18.6-41.7 41.7-41.7h155.7c22.9 0 41.7 18.6 41.7 41.7v111.3c-0.1 23-18.9 41.7-41.8 41.7zM436.6 566.6c-8.6 0-15.6 7-15.6 15.6v111.3c0 8.6 7 15.6 15.6 15.6h155.7c8.6 0 15.6-7 15.6-15.6V582.3c0-8.6-7-15.6-15.6-15.6H436.6z" fill="#1B81FC" p-id="1716"></path><path d="M226.5 339.1h-26.1c0-9.1-7.4-16.4-16.4-16.4s-16.4 7.4-16.4 16.4h-26.1c0-23.5 19-42.5 42.5-42.5s42.5 19.1 42.5 42.5z" fill="#1B81FC" p-id="1717"></path><path d="M629.9 582.6H395.5c-47 0-85.6-38.5-85.6-85.6 0-47 38.5-85.6 85.6-85.6h234.4c47 0 85.6 38.5 85.6 85.6 0.1 47.1-38.3 85.6-85.6 85.6z" fill="#FFFFFF" p-id="1718"></path><path d="M629.9 595.6H395.5c-54.3 0-98.7-44.3-98.7-98.7s44.3-98.7 98.7-98.7h234.4c54.3 0 98.7 44.3 98.7 98.7s-44.2 98.7-98.7 98.7zM395.6 424.5c-40 0-72.6 32.6-72.6 72.6s32.6 72.6 72.6 72.6H630c40 0 72.6-32.6 72.6-72.6S670 424.5 630 424.5H395.6z" fill="#1B81FC" p-id="1719"></path><path d="M880.1 339.1H854c0-9.1-7.4-16.4-16.4-16.4-9 0-16.4 7.4-16.4 16.4h-26.1c0-23.5 19-42.5 42.5-42.5s42.5 19.1 42.5 42.5z" fill="#1B81FC" p-id="1720"></path><path d="M542.4 617.5h-62c-40 0-72.7-32.7-72.7-72.7s32.7-72.7 72.7-72.7h62c40 0 72.7 32.7 72.7 72.7s-32.6 72.7-72.7 72.7z" fill="#FFFFFF" p-id="1721"></path><path d="M542.4 630.5h-62c-47.2 0-85.7-38.4-85.7-85.7s38.4-85.7 85.7-85.7h62c47.2 0 85.7 38.4 85.7 85.7 0.1 47.4-38.4 85.7-85.7 85.7z m-62-145.2c-32.8 0-59.7 26.8-59.7 59.7 0 32.8 26.8 59.7 59.7 59.7h62c32.8 0 59.7-26.8 59.7-59.7 0-32.8-26.8-59.7-59.7-59.7h-62z" fill="#1B81FC" p-id="1722"></path><path d="M511.5 517.1c-2.4 0-5 0.2-7.3 0.9 3.6 3.3 5.9 7.9 5.9 13.3 0 9.8-7.9 17.6-17.6 17.6-4.8 0-9.2-2-12.6-5.2-0.2 1.7-0.4 3.4-0.4 5.2 0 17.6 14.2 31.8 31.8 31.8s31.8-14.2 31.8-31.8c0.1-17.6-14-31.8-31.6-31.8z" fill="#1B81FC" p-id="1723"></path></svg>