<?xml version="1.0" standalone="no"?><!DOCTYPE svg PUBLIC "-//W3C//DTD SVG 1.1//EN" "http://www.w3.org/Graphics/SVG/1.1/DTD/svg11.dtd"><svg t="1628659953060" class="icon" viewBox="0 0 1024 1024" version="1.1" xmlns="http://www.w3.org/2000/svg" p-id="5127" width="32" height="32" xmlns:xlink="http://www.w3.org/1999/xlink"><defs><style type="text/css"></style></defs><path d="M340.646247 809.170299a138.258827 138.258827 0 1 1-114.42899-114.42899c14.861465-15.94854 28.392693-31.367847 40.407737-46.057668a193.098921 193.098921 0 0 0-198.82037 46.086275c-75.208454 75.208454-75.208454 197.590258 0 272.813016s197.604562 75.222757 272.827319 0a193.098921 193.098921 0 0 0 46.100579-198.748852c-14.718429 11.986437-30.166342 25.489058-46.086275 40.336219zM764.805905 641.689169C776.620699 656.53633 789.96598 672.012851 804.61289 688.004302A138.273131 138.273131 0 1 1 689.840613 802.848097c-15.991451-14.632607-31.467972-27.963584-46.329437-39.764074A193.098921 193.098921 0 0 0 689.840613 960.888836c75.222757 75.222757 197.618866 75.222757 272.82732 0s75.222757-197.604562 0-272.827319a193.098921 193.098921 0 0 0-197.862028-46.372348zM692.815767 227.856726a138.273131 138.273131 0 1 1 114.700759 114.672152c-15.247663 16.520685-28.535729 31.925688-40.050147 46.229312a193.098921 193.098921 0 0 0 198.233922-46.272223c75.222757-75.222757 75.222757-197.604562 0-272.827319s-197.618866-75.222757-272.827319 0a193.098921 193.098921 0 0 0-46.243616 198.334047c13.946033-11.256952 29.322429-24.530715 46.186401-40.135969zM258.285981 374.940889c-12.444153-14.775643-26.204239-30.03761-41.122918-45.771596a138.258827 138.258827 0 1 1 113.828238-113.785327c15.648164 14.904376 30.995953 28.607247 45.771596 41.122919a193.098921 193.098921 0 0 0-45.685775-200.093393C255.854365-18.809265 133.42965-18.809265 58.249803 56.413492s-75.222757 197.604562 0 272.827319a193.184742 193.184742 0 0 0 200.036178 45.700078zM518.340165 460.176183a56.32767 56.32767 0 1 0 39.90711 16.492078 56.012991 56.012991 0 0 0-39.90711-16.492078z" p-id="5128"></path><path d="M787.949169 845.344163c3.204012 3.418566 11.056701 12.31542 12.701617 13.946034l0.815307 0.786699a8.010029 8.010029 0 0 0 1.430362 1.30163c19.195463 17.264474 46.815761 18.594711 62.935945 2.417312 15.133234-15.133234 14.947287-40.393433 0.615056-59.317128a169.998568 169.998568 0 0 0-12.243902-12.172383c-1.587702-1.344541-2.860725-2.517438-3.475781-3.003761-44.126679-40.879757-188.135563-180.726286-185.303445-262.657443 0.114429-3.418566 0-17.779404 0-21.927455-0.400501-82.202926 141.605875-220.075555 185.346356-260.612025 0.543538-0.486323 1.888078-1.65922 3.475781-3.018065a167.052022 167.052022 0 0 0 12.243902-12.15808c14.303624-18.923694 14.518178-44.183894-0.615056-59.317128-16.120184-16.120184-43.740481-14.847161-62.935945 2.417313a8.010029 8.010029 0 0 0-1.430362 1.30163c-0.271769 0.271769-0.543538 0.51493-0.815307 0.772395-1.644917 1.644917-9.497606 10.541771-12.701618 13.974641-43.068211 46.129187-170.59932 175.534071-251.228847 181.656021-6.350809 0.486323-28.06371 0.386198-33.370354 0.171644-82.546213-3.246923-217.415081-142.106502-257.350799-185.289142-0.500627-0.543538-1.65922-1.888078-3.018064-3.475781a164.262815 164.262815 0 0 0-12.15808-12.243902c-18.923694-14.303624-44.183894-14.518178-59.317128 0.600752-16.120184 16.134488-14.861465 43.754785 2.417312 62.935945a8.6823 8.6823 0 0 0 1.30163 1.430362l0.772396 0.801003c1.644917 1.65922 10.541771 9.497606 13.960336 12.701618C234.899556 289.362308 358.826153 411.443737 370.869804 492.259211c1.30163 8.696603 1.215808 44.212501-1.115683 55.226292-17.164348 80.729652-135.998855 197.733295-179.810854 238.627355-3.418566 3.218315-12.31542 11.056701-13.960337 12.701617l-0.772395 0.815307a8.010029 8.010029 0 0 0-1.30163 1.430362c-17.278777 19.195463-18.594711 46.815761-2.417313 62.935945 15.133234 15.133234 40.393433 14.96159 59.317128 0.615056a167.052022 167.052022 0 0 0 12.15808-12.243902c1.358844-1.587702 2.517438-2.860725 3.032368-3.475781C285.048061 806.724379 414.467249 673.343088 497.385356 664.031429c7.480795-0.843914 33.956803-0.815307 40.865453-0.15734C618.966158 671.483617 745.152726 799.572567 787.949169 845.344163zM580.246248 578.409937a87.552481 87.552481 0 1 1 0-123.812167 86.980336 86.980336 0 0 1 0 123.812167z" p-id="5129"></path></svg>