<?xml version="1.0" standalone="no"?><!DOCTYPE svg PUBLIC "-//W3C//DTD SVG 1.1//EN" "http://www.w3.org/Graphics/SVG/1.1/DTD/svg11.dtd"><svg t="1631621401682" class="icon" viewBox="0 0 1024 1024" version="1.1" xmlns="http://www.w3.org/2000/svg" p-id="15343" width="48" height="48" xmlns:xlink="http://www.w3.org/1999/xlink"><defs><style type="text/css"></style></defs><path d="M831.926 938.558c0 47.114-38.21 85.324-85.324 85.324h-469.22c-47.116 0-85.308-38.21-85.308-85.324V85.41c0-47.114 38.194-85.292 85.308-85.292H746.6c47.114 0 85.324 38.18 85.324 85.292v853.148z" fill="#656D78" p-id="15344"></path><path d="M746.602 0.118h-469.22c-47.116 0-85.308 38.18-85.308 85.292v767.824h639.852V85.41c0-47.114-38.212-85.292-85.324-85.292z" fill="#48CFAD" p-id="15345"></path><path d="M553.678 938.558c0 23.556-19.074 42.646-42.646 42.646-23.556 0-42.646-19.09-42.646-42.646s19.09-42.646 42.646-42.646c23.572 0 42.646 19.09 42.646 42.646z" fill="#CCD1D9" p-id="15346"></path><path d="M277.382 85.41H746.6V512H277.382z" fill="#F5F7FA" p-id="15347"></path><path d="M725.262 597.292H298.706c-11.78 0-21.322-9.53-21.322-21.308s9.542-21.338 21.322-21.338h426.556c11.81 0 21.34 9.56 21.34 21.338 0 11.78-9.53 21.308-21.34 21.308zM725.262 682.618H298.706c-11.78 0-21.322-9.56-21.322-21.34 0-11.778 9.542-21.306 21.322-21.306h426.556c11.81 0 21.34 9.53 21.34 21.306 0 11.778-9.53 21.34-21.34 21.34zM489.708 767.942h-191.004c-11.78 0-21.322-9.56-21.322-21.34 0-11.778 9.542-21.338 21.322-21.338h191.004c11.778 0 21.322 9.56 21.322 21.338 0.002 11.778-9.544 21.34-21.322 21.34z" fill="#434A54" p-id="15348"></path></svg>